<?xml version="1.0" encoding="iso-8859-1"?>
<!-- Generator: Adobe Illustrator 19.0.0, SVG Export Plug-In . SVG Version: 6.00 Build 0)  -->
<svg version="1.1" id="Layer_1" xmlns="http://www.w3.org/2000/svg" xmlns:xlink="http://www.w3.org/1999/xlink" x="0px" y="0px"
	 viewBox="0 0 380.44 380.44" style="enable-background:new 0 0 380.44 380.44;" xml:space="preserve">
<path style="fill:#E2BC50;" d="M315.72,190.22c0,105.06-85.17,190.22-190.23,190.22c-5.82,0-11.58-0.26-17.26-0.77
	c-15.08-1.36-29.65-4.47-43.51-9.14c75.25-25.36,129.44-96.51,129.44-180.31S139.97,35.27,64.72,9.92
	c13.88-4.68,28.47-7.8,43.57-9.15c5.66-0.51,11.4-0.77,17.2-0.77C230.55,0,315.72,85.16,315.72,190.22z"/>
<path style="fill:#F7CF52;" d="M281.22,190.22c0,99.25-76.01,180.74-172.99,189.45c-15.08-1.36-29.65-4.47-43.51-9.14
	c75.25-25.36,129.44-96.51,129.44-180.31S139.97,35.27,64.72,9.92c13.88-4.68,28.47-7.8,43.57-9.15
	C205.24,9.51,281.22,90.99,281.22,190.22z"/>
<g>
</g>
<g>
</g>
<g>
</g>
<g>
</g>
<g>
</g>
<g>
</g>
<g>
</g>
<g>
</g>
<g>
</g>
<g>
</g>
<g>
</g>
<g>
</g>
<g>
</g>
<g>
</g>
<g>
</g>
</svg>
